<svg xmlns="http://www.w3.org/2000/svg" width="512" height="512" preserveAspectRatio="none" style="display:block" viewBox="0 0 2048 2048" id="a0817acd-d408-4d60-b229-e113552de0f0">
  <defs>
    <linearGradient id="Gradient1" x1="1393.04" x2="1449.8" y1="1090.59" y2="1146.73" gradientUnits="userSpaceOnUse">
      <stop class="stop0" offset="0" stop-color="#FBB509"></stop>
      <stop class="stop1" offset="1" stop-color="#FFE210"></stop>
    </linearGradient>
  </defs>
  <path fill="#77D8ED" d="M 1281.71 327.442 C 1207.21 388.775 1180.13 256.721 1256.94 268.973 C 1279.18 272.52 1285.22 292.999 1288.25 312.402 C 1300.81 312.361 1332.2 309.251 1342.92 315.208 C 1347.05 317.502 1345 544.742 1345.03 568.532 C 1345.02 568.701 1345.01 568.869 1344.99 569.038 C 1423.76 599.601 1525.72 752.92 1559.74 827.356 C 1562.98 834.519 1571.61 858.706 1574.11 862.267 C 1604.1 839.555 1625.41 875.046 1646.47 896.23 C 1699.44 949.519 1682.42 937.17 1648.6 994.74 C 1652.02 998.307 1654.99 1000.71 1656.69 1005.28 C 1655.6 1013.45 1611.88 1054.85 1603.26 1064.44 C 1613.29 1071.73 1616.25 1073.73 1623.11 1083.82 L 1624.33 1085.6 C 1651.67 1072.17 1672.34 1085.17 1686.03 1109.5 C 1708.59 1097.19 1729.65 1110.06 1739.35 1131.75 C 1774.29 1117.16 1806.57 1140.59 1809.25 1177.93 C 1811.69 1211.87 1809.75 1247.02 1809.71 1281.08 C 1809.67 1306.79 1820.74 1382.83 1793.23 1393.59 C 1780.89 1398.42 1640.86 1398.2 1618.78 1396.7 C 1580.78 1394.12 1536.21 1321.58 1499.08 1300.91 C 1471.53 1372.12 1375.27 1456.59 1309.28 1488.96 C 1278.38 1504.12 1040.07 1466.22 989.18 1460.1 C 990.171 1438.77 989.213 1408.03 989.209 1386.15 L 989.258 967.19 C 989.337 862.794 971.519 870.65 866.638 870.616 L 563.968 870.538 C 533.655 870.537 487.094 866.116 458.867 875.555 C 503.147 751.238 573.458 644.134 685.706 569.873 C 704.077 557.719 725.643 541.929 746.685 535.219 L 746.709 383.68 C 746.71 361.238 745.682 330.637 746.685 309.008 L 783.738 309.008 C 790.291 246.403 864.902 266.64 856.867 312.039 C 850.017 352.812 809.665 351.18 783.738 323.918 C 775.902 323.666 769.662 323.594 761.845 323.918 L 761.845 763.973 C 823.722 762.899 888.895 763.97 951.111 763.972 L 1329.64 763.973 C 1330.22 720.02 1329.64 674.896 1329.63 630.82 L 1329.64 327.442 L 1281.71 327.442 z M 1510.63 915.055 C 1498.86 891.191 1466.85 871.486 1443.37 887.261 C 1403.7 913.918 1327.73 997.22 1288.31 1037.13 C 1263.73 1063.61 1274.38 1103.29 1303.79 1119.64 L 1228.84 1195.65 C 1166.95 1257.65 1169.38 1261.92 1143.49 1342.53 C 1136.28 1365.91 1122.56 1402.25 1118.78 1425.54 C 1153.77 1419.61 1229.76 1403.58 1261.85 1389.84 C 1311.1 1368.74 1375.08 1287.53 1420.48 1248.45 L 1470.52 1281.92 C 1479.16 1287.74 1490.34 1295.91 1499.08 1300.91 C 1536.21 1321.58 1580.78 1394.12 1618.78 1396.7 C 1640.86 1398.2 1780.89 1398.42 1793.23 1393.59 C 1820.74 1382.83 1809.67 1306.79 1809.71 1281.08 C 1809.75 1247.02 1811.69 1211.87 1809.25 1177.93 C 1806.57 1140.59 1774.29 1117.16 1739.35 1131.75 C 1729.65 1110.06 1708.59 1097.19 1686.03 1109.5 C 1672.34 1085.17 1651.67 1072.17 1624.33 1085.6 L 1623.11 1083.82 C 1616.25 1073.73 1613.29 1071.73 1603.26 1064.44 C 1611.88 1054.85 1655.6 1013.45 1656.69 1005.28 C 1654.99 1000.71 1652.02 998.307 1648.6 994.74 C 1682.42 937.17 1699.44 949.519 1646.47 896.23 C 1625.41 875.046 1604.1 839.555 1574.11 862.267 C 1566.73 870.014 1547.38 895.91 1536.54 894.005 C 1527.83 897.813 1517.55 908.1 1510.63 915.055 z M 1288.25 312.402 C 1285.22 292.999 1279.18 272.52 1256.94 268.973 C 1180.13 256.721 1207.21 388.775 1281.71 327.442 L 1329.64 327.442 L 1329.63 630.82 C 1329.64 674.896 1330.22 720.02 1329.64 763.973 L 951.111 763.972 C 888.895 763.97 823.722 762.899 761.845 763.973 L 761.845 323.918 C 769.662 323.594 775.902 323.666 783.738 323.918 C 809.665 351.18 850.017 352.812 856.867 312.039 C 864.902 266.64 790.291 246.403 783.738 309.008 L 746.685 309.008 C 745.682 330.637 746.71 361.238 746.709 383.68 L 746.685 535.219 L 746.685 763.973 C 736.741 764.02 702.934 761.577 697.608 764.938 C 679.445 788.564 776.626 778.98 787.433 778.982 L 1371.65 779.207 C 1376.56 779.25 1384.15 779.453 1385.09 773.489 C 1387.35 759.091 1353.9 763.959 1344.99 763.973 L 1345.03 628.471 C 1345.02 616.211 1343.86 578.436 1344.99 569.038 C 1345.01 568.869 1345.02 568.701 1345.03 568.532 C 1345 544.742 1347.05 317.502 1342.92 315.208 C 1332.2 309.251 1300.81 312.361 1288.25 312.402 z"></path>
  <path fill="#53458A" d="M 1574.11 862.267 C 1604.1 839.555 1625.41 875.046 1646.47 896.23 C 1699.44 949.519 1682.42 937.17 1648.6 994.74 C 1652.02 998.307 1654.99 1000.71 1656.69 1005.28 C 1655.6 1013.45 1611.88 1054.85 1603.26 1064.44 C 1613.29 1071.73 1616.25 1073.73 1623.11 1083.82 L 1624.33 1085.6 C 1651.67 1072.17 1672.34 1085.17 1686.03 1109.5 C 1708.59 1097.19 1729.65 1110.06 1739.35 1131.75 C 1774.29 1117.16 1806.57 1140.59 1809.25 1177.93 C 1811.69 1211.87 1809.75 1247.02 1809.71 1281.08 C 1809.67 1306.79 1820.74 1382.83 1793.23 1393.59 C 1780.89 1398.42 1640.86 1398.2 1618.78 1396.7 C 1580.78 1394.12 1536.21 1321.58 1499.08 1300.91 C 1490.34 1295.91 1479.16 1287.74 1470.52 1281.92 L 1420.48 1248.45 C 1375.08 1287.53 1311.1 1368.74 1261.85 1389.84 C 1229.76 1403.58 1153.77 1419.61 1118.78 1425.54 C 1122.56 1402.25 1136.28 1365.91 1143.49 1342.53 C 1169.38 1261.92 1166.95 1257.65 1228.84 1195.65 L 1303.79 1119.64 C 1274.38 1103.29 1263.73 1063.61 1288.31 1037.13 C 1327.73 997.22 1403.7 913.918 1443.37 887.261 C 1466.85 871.486 1498.86 891.191 1510.63 915.055 C 1517.55 908.1 1527.83 897.813 1536.54 894.005 C 1547.38 895.91 1566.73 870.014 1574.11 862.267 z M 1608.86 1093.98 C 1601.67 1082.57 1591.73 1075.22 1577.66 1075.17 C 1519.11 1092.8 1569.94 1176.75 1584.49 1221.39 C 1588.16 1232.82 1578.24 1235.94 1569.68 1232.13 C 1536.91 1217.51 1505.23 1203.08 1472.04 1189.14 C 1455.72 1182.29 1428.77 1161.67 1412.43 1181.8 C 1387.41 1212.63 1417.89 1231.2 1442.16 1244.74 C 1509.22 1287.54 1533.22 1310.69 1590.76 1364.33 C 1604.91 1377.71 1608.15 1382.43 1628.45 1381.86 C 1664.82 1380.85 1701.21 1381.09 1737.6 1381.18 C 1752.47 1381.22 1793.58 1390.37 1794.75 1367.75 C 1795.91 1345.21 1796.76 1175.22 1792.88 1165.1 C 1776.47 1122.27 1746.91 1151.87 1731.93 1154.86 C 1726.15 1152.4 1724.99 1111.61 1699.19 1120.46 C 1694.96 1120.74 1680.34 1131.42 1677.41 1128.93 C 1665.55 1118.88 1672.63 1099.23 1651.66 1095.79 C 1618.22 1090.31 1612.29 1164.67 1608.86 1093.98 z M 1318.96 1103.35 L 1487.33 935.862 C 1506.63 916.641 1480.61 897.641 1460.22 897.344 C 1442.03 901.233 1425.23 921.943 1412.06 935.123 L 1360.83 986.536 C 1339.91 1007.5 1289.25 1047.95 1290.14 1075.07 C 1290.51 1086.11 1305.7 1115.87 1318.96 1103.35 z M 1254.67 1377.28 L 1267.7 1370.01 C 1279.19 1363 1287.03 1357.68 1297.38 1349.07 C 1288.75 1337.3 1206.84 1252.21 1197.99 1248.45 C 1188.7 1261.61 1178.88 1279.88 1173.7 1295.2 C 1194.52 1317.9 1231.17 1357.91 1254.67 1377.28 z"></path>
  <path fill="url(#Gradient1)" d="M 1538.29 909.726 C 1543.94 914.745 1549.58 920.223 1555.1 925.428 C 1574.87 943.408 1593.04 962.477 1612.99 980.419 C 1621.75 989.365 1630.23 996.931 1639.55 1005.28 C 1622.8 1021.95 1599.4 1044.79 1581.87 1060.68 C 1548.43 1060.49 1533.21 1080.61 1532.09 1112.19 C 1518.8 1126.29 1485.51 1159.22 1469.8 1169.01 C 1466.28 1170.35 1447.29 1159.13 1438.98 1157.84 C 1412.28 1158.31 1382.71 1175.22 1390 1206.75 C 1389.92 1224.89 1393.43 1228.16 1406.87 1240.11 C 1376.79 1266.08 1337.78 1307.4 1309.44 1336.84 C 1299.29 1326.27 1294.72 1319.32 1281.71 1313.13 C 1272.76 1296.66 1245.15 1268.72 1230.2 1257.43 C 1223.34 1249.57 1216.58 1242.04 1210.41 1233.6 C 1235.29 1212.99 1263.05 1180.85 1286.76 1157.74 C 1348.46 1097.62 1408.86 1033.82 1470.65 973.992 L 1511.94 934.159 C 1519.73 926.599 1529.82 915.904 1538.29 909.726 z"></path>
  <path fill="#FEE13A" d="M 1538.29 909.726 C 1543.94 914.745 1549.58 920.223 1555.1 925.428 C 1449.49 1038.67 1336.72 1144.64 1230.2 1257.43 C 1223.34 1249.57 1216.58 1242.04 1210.41 1233.6 C 1235.29 1212.99 1263.05 1180.85 1286.76 1157.74 C 1348.46 1097.62 1408.86 1033.82 1470.65 973.992 L 1511.94 934.159 C 1519.73 926.599 1529.82 915.904 1538.29 909.726 z"></path>
  <path fill="#FDAC05" d="M1612.99 980.419C1621.75 989.365 1630.23 996.931 1639.55 1005.28 1622.8 1021.95 1599.4 1044.79 1581.87 1060.68 1548.43 1060.49 1533.21 1080.61 1532.09 1112.19 1518.8 1126.29 1485.51 1159.22 1469.8 1169.01 1466.28 1170.35 1447.29 1159.13 1438.98 1157.84 1466.99 1125.95 1601.22 1004.39 1612.99 980.419zM1281.71 1313.13C1296.49 1304.71 1370.74 1225 1390 1206.75 1389.92 1224.89 1393.43 1228.16 1406.87 1240.11 1376.79 1266.08 1337.78 1307.4 1309.44 1336.84 1299.29 1326.27 1294.72 1319.32 1281.71 1313.13z"></path>
  <path fill="#53458A" d="M 1521.66 1011.69 C 1549.8 1017.42 1494.78 1059.82 1484.9 1069.75 L 1331.54 1221.66 C 1319.44 1233.5 1307.56 1246.41 1294.87 1257.43 C 1284.1 1257.19 1284.11 1247.06 1290.6 1240.69 L 1490.15 1041.82 C 1498.64 1033.3 1512.44 1018.53 1521.66 1011.69 z"></path>
  <path fill="#FB8707" d="M 1555.1 902.008 C 1578.88 871.95 1585.83 857.739 1612.99 880.978 L 1613.86 882.169 C 1669.59 957.897 1682.01 902.85 1639.55 984.885 C 1615.94 964.23 1591.23 942.116 1570.13 918.803 C 1562.59 912.496 1560.42 909.788 1555.1 902.008 z"></path>
  <path fill="#FEE263" d="M 1555.1 902.008 C 1578.88 871.95 1585.83 857.739 1612.99 880.978 C 1594.69 893.121 1582.14 911.194 1570.13 918.803 C 1562.59 912.496 1560.42 909.788 1555.1 902.008 z"></path>
  <path fill="#FFBE12" d="M 1169.47 1313.13 C 1180.99 1324.74 1192.23 1337.07 1203.38 1349.07 C 1213.6 1359.43 1224.82 1371.31 1235.39 1381.18 C 1222.86 1385.65 1169.78 1405.01 1160.27 1396.97 C 1154.35 1393.43 1151.97 1392.21 1146.99 1387.41 C 1149.26 1370.89 1163.66 1330.43 1169.47 1313.13 z"></path>
  <path fill="#FDAC05" d="M 1203.38 1349.07 C 1213.6 1359.43 1224.82 1371.31 1235.39 1381.18 C 1222.86 1385.65 1169.78 1405.01 1160.27 1396.97 C 1174.26 1380.57 1189.9 1365.33 1203.38 1349.07 z"></path>
  <path fill="#77D8ED" d="M 1538.29 1131.75 L 1539.13 1132.41 C 1545.31 1159.85 1557.7 1186.38 1563.85 1212.08 L 1532.09 1197.97 C 1516.72 1191.77 1502.73 1185.95 1488.11 1178.1 C 1498.47 1166.08 1524.9 1139 1538.29 1131.75 z"></path>
  <path fill="#53458A" d="M1281.71 327.442C1207.21 388.775 1180.13 256.721 1256.94 268.973 1279.18 272.52 1285.22 292.999 1288.25 312.402 1300.81 312.361 1332.2 309.251 1342.92 315.208 1347.05 317.502 1345 544.742 1345.03 568.532 1345.02 568.701 1345.01 568.869 1344.99 569.038 1343.86 578.436 1345.02 616.211 1345.03 628.471L1344.99 763.973C1353.9 763.959 1387.35 759.091 1385.09 773.489 1384.15 779.453 1376.56 779.25 1371.65 779.207L787.433 778.982C776.626 778.98 679.445 788.564 697.608 764.938 702.934 761.577 736.741 764.02 746.685 763.973L746.685 535.219 746.709 383.68C746.71 361.238 745.682 330.637 746.685 309.008L783.738 309.008C790.291 246.403 864.902 266.64 856.867 312.039 850.017 352.812 809.665 351.18 783.738 323.918 775.902 323.666 769.662 323.594 761.845 323.918L761.845 763.973C823.722 762.899 888.895 763.97 951.111 763.972L1329.64 763.973C1330.22 720.02 1329.64 674.896 1329.63 630.82L1329.64 327.442 1281.71 327.442zM1253.53 327.408C1261.36 325.506 1267.54 319.533 1269.72 311.783 1271.89 304.033 1269.72 295.712 1264.03 290.019 1258.34 284.326 1250.02 282.146 1242.27 284.317 1230.57 287.594 1223.65 299.644 1226.72 311.4 1229.8 323.156 1241.73 330.278 1253.53 327.408zM826.45 327.444C838.043 324.04 844.635 311.835 841.125 300.274 837.615 288.712 825.349 282.233 813.821 285.849 802.442 289.419 796.064 301.491 799.529 312.903 802.994 324.315 815.007 330.803 826.45 327.444zM458.867 875.555C487.094 866.116 533.655 870.537 563.968 870.538L866.638 870.616C971.519 870.65 989.337 862.794 989.258 967.19L989.209 1386.15C989.213 1408.03 990.171 1438.77 989.18 1460.1 973.279 1467.77 973.131 1456.4 973.112 1443.95L973.275 975.083C973.398 868.647 955.608 885.655 861.843 885.652L559.984 885.65C526.514 885.631 441.071 873.362 439.39 924.237 439.012 935.666 439.103 947.586 439.115 959.041L439.171 1546.97C439.11 1593.93 433.346 1643.06 494.417 1643.04L758.466 1642.94C784.48 1642.95 810.715 1643.56 836.741 1642.12 848.225 1641.49 857.548 1657.4 829.516 1658.3 806.302 1659.05 782.985 1658.76 759.752 1658.76L531.532 1658.81C418.493 1658.89 422.81 1635.47 423.011 1525.7L422.958 950.284C422.986 921.085 426.053 886.971 458.867 875.555z"></path>
  <path fill="#53458A" d="M 1026.48 268.341 C 1057.81 267.322 1081.48 300.791 1062.16 328.335 C 1059.32 332.378 1051.97 337.735 1048.2 341.608 L 1046.98 342.874 C 1065.03 350.589 1069.17 367.984 1076.58 385.968 C 1135.63 397.26 1162.9 394.429 1097.67 452.987 L 1102.4 472.971 C 1116.88 535.064 1083.06 518.331 1046.98 490.966 C 1031.82 489.636 1014.92 517.654 991.694 515.366 C 968.931 513.124 982.774 466.426 984.561 452.987 C 951.855 406.84 916.282 401.888 1002.7 385.968 C 1012.97 372.607 1015.82 359.398 1024.69 345.08 C 976.223 326.877 985.949 273.696 1026.48 268.341 z M 1033.51 328.265 C 1044.21 326.728 1052.29 317.788 1052.75 306.991 C 1053.03 300.29 1050.31 293.814 1045.32 289.333 C 1040.33 284.852 1033.6 282.836 1026.97 283.836 C 1014.74 285.681 1006.3 297.072 1008.1 309.31 C 1009.9 321.549 1021.26 330.024 1033.51 328.265 z M 1067.62 486.741 C 1086.32 498.505 1093.15 504.642 1086.9 478.031 C 1084.37 478.931 1083.38 480.914 1081.31 483.285 L 1067.62 486.741 z"></path>
  <path fill="#FEE263" d="M 1017.36 400.339 C 1046.61 325.988 1040.83 361.294 1067.62 400.339 C 1138.17 412.96 1126.02 399.025 1081.31 448.988 C 1084 458.989 1085.92 467.655 1086.9 478.031 C 1084.37 478.931 1083.38 480.914 1081.31 483.285 L 1067.62 486.741 C 1058.99 481.604 1052.42 477.754 1043.3 473.368 C 1035.32 477.394 1029.44 481.679 1022.17 486.741 C 1013.16 490.817 1004.13 496.38 994.681 500.845 C 994.873 490.442 996.29 483.575 998.17 473.368 C 999.89 465.287 1001.27 457.125 1002.7 448.988 C 996.338 438.811 987.036 432.442 978.702 423.812 C 968.157 415.076 962.193 406.295 978.702 402.89 C 991.531 403.125 1004.67 402.343 1017.36 400.339 z"></path>
  <path fill="#FEE13A" d="M998.17 473.368C1023.39 496.697 1011.41 482.255 1022.09 485.495L1022.17 486.741C1013.16 490.817 1004.13 496.38 994.681 500.845 994.873 490.442 996.29 483.575 998.17 473.368zM978.702 423.812C968.157 415.076 962.193 406.295 978.702 402.89 978.119 409.174 979.703 421.895 978.702 423.812z"></path>
  <path fill="#53458A" d="M 960.596 541.9 L 1053.57 541.827 C 1071.47 541.826 1113.47 540.246 1129.37 544.787 C 1130 561.217 1132.74 667.171 1125.36 677.022 C 1093.15 679.133 977.787 680.869 959.872 674.874 C 956.306 670.242 952.919 549.757 960.596 541.9 z"></path>
  <path fill="#F37B80" d="M 973.246 556.116 L 1114.35 556.116 L 1114.35 663.912 L 973.246 663.912 L 973.246 556.116 z"></path>
  <path fill="#53458A" d="M 1154.67 490.966 L 1238.11 490.89 C 1258.27 490.836 1297.54 482.127 1297.57 505.419 C 1297.58 521.7 1301.7 612.119 1294.87 619.565 L 1206.87 619.609 C 1196.48 619.622 1158.42 621.229 1150.75 616.426 C 1147.72 608.84 1144.52 503.347 1154.67 490.966 z"></path>
  <path fill="#FEE263" d="M 1164 505.122 C 1203.13 505.573 1242.52 504.779 1281.71 505.122 C 1280.17 528.99 1282.38 564.302 1281.71 589.719 L 1281.71 604.586 L 1267.7 604.586 L 1164 604.586 L 1164 505.122 z"></path>
  <path fill="#FEE13A" d="M 1267.7 604.586 C 1266.26 603.136 1264.37 603.293 1261.87 602.836 C 1263.79 600.998 1266.9 601.065 1270.1 600.473 C 1272.05 596.954 1276.42 589.536 1280.26 588.091 L 1281.71 589.719 L 1281.71 604.586 L 1267.7 604.586 z"></path>
  <path fill="#53458A" d="M 799.191 490.966 L 883.778 490.883 C 893.867 490.868 930.891 489.473 937.236 493.541 C 939.898 500.326 943.577 612.561 935.755 619.565 C 928.403 620.462 905.45 619.613 896.349 619.615 L 841.14 619.65 C 829.001 619.651 809.875 620.5 798.714 617.674 C 792.968 610.619 796.105 495.225 799.191 490.966 z"></path>
  <path fill="#FEE263" d="M 821.659 505.122 L 925.071 505.122 L 925.092 567.458 C 925.097 582.676 931.158 604.02 917.027 604.586 C 882.01 604.562 845.932 605.183 811.065 604.586 L 811.039 545.03 C 811.049 526.657 804.203 505.87 821.659 505.122 z"></path>
  <path fill="#53458A" d="M 553.426 984.885 C 560.679 978.212 659.786 896.939 657.503 944.851 C 656.811 959.368 622.899 978.365 612.234 984.885 C 613.828 991.32 612.502 1072.68 610.237 1078.04 C 592.616 1083.17 527.369 1079.97 505.194 1079.88 C 490.805 1079.82 497.286 989.571 497.853 975.635 C 498.003 936.692 542.033 975.172 553.426 984.885 z"></path>
  <path fill="#F37B80" d="M 553.426 984.885 C 560.679 978.212 659.786 896.939 657.503 944.851 C 656.811 959.368 622.899 978.365 612.234 984.885 C 592.528 992.714 576.592 1008.5 558.026 1017.11 C 538.555 1004.81 516.817 986.444 497.853 975.635 C 498.003 936.692 542.033 975.172 553.426 984.885 z"></path>
  <path fill="#FEE13A" d="M 512.948 1005.28 C 528.526 1014.94 540.959 1027.12 558.026 1033.86 C 568.845 1029.84 585.395 1018.18 596.371 1011.69 L 596.371 1045.25 L 596.371 1064.44 C 569.191 1063.91 540.269 1064.43 512.948 1064.44 C 512.653 1044.94 512.926 1024.83 512.948 1005.28 z"></path>
  <path fill="#53458A" d="M 585.627 1134.61 C 593.181 1134.43 604.49 1133.36 610.909 1136.57 C 612.865 1140.13 612.681 1233.11 612.234 1245.27 C 604.773 1246.04 591.527 1245.4 583.484 1245.37 L 525.676 1245.27 C 519.198 1245.37 504.249 1246.6 499.822 1242.98 C 496.762 1232.94 497.481 1150.51 497.853 1134.61 L 585.627 1134.61 z"></path>
  <path fill="#FEE13A" d="M 512.948 1149.24 C 538.173 1150.31 570.26 1149.1 596.371 1149.24 L 596.371 1230.71 C 572.244 1229.58 537.903 1230.66 512.948 1230.71 C 512.196 1209.96 510.857 1168.86 512.948 1149.24 z"></path>
  <path fill="#53458A" d="M 506.895 1300.91 C 522.756 1300.72 601.63 1299.62 610.535 1303.07 C 612.544 1307.39 614.685 1400.54 609.707 1410.14 C 609.157 1411.2 605.37 1411.4 604.019 1411.61 C 589.071 1411.62 508.931 1413.46 500.343 1409.11 C 498.008 1403.39 488.299 1301.81 506.895 1300.91 z"></path>
  <path fill="#FEE13A" d="M 512.948 1317.01 L 596.371 1317.01 L 596.371 1396.97 C 590.279 1396.3 575.107 1396.84 568.388 1396.86 L 512.948 1396.97 L 512.948 1317.01 z"></path>
  <path fill="#53458A" d="M1639.55 1503.01C1650.83 1503.37 1661.3 1503.63 1672.48 1506.6 1720.02 1519.21 1727.64 1585.06 1680.97 1608.56 1670.03 1612.95 1622.68 1618.38 1614.99 1611.6 1612.18 1601.06 1611.83 1516.83 1614.25 1506.88 1618.09 1503.32 1633.55 1503.34 1639.55 1503.01zM1629.81 1598.96C1655.37 1599.27 1663.45 1601.21 1686.03 1588.78 1716.8 1538.9 1674.1 1518.37 1629.81 1518.99L1629.81 1598.96zM904.422 1501.88C934.633 1500.32 960.483 1523.34 962.406 1553.53 964.329 1583.73 941.61 1609.85 911.444 1612.13 891.61 1613.63 872.501 1604.35 861.416 1587.83 850.33 1571.32 848.979 1550.12 857.88 1532.33 866.781 1514.54 884.558 1502.91 904.422 1501.88zM917.027 1598.96C958.014 1568.14 947.057 1510.78 900.854 1518.99 859.899 1525.25 860.008 1597.08 917.027 1598.96zM1118.78 1503.01C1149.23 1502.8 1208.66 1495.54 1198.24 1545.11 1195.17 1559.73 1185.18 1566.4 1173.7 1573.93 1182.97 1581.43 1219.57 1611.92 1189.25 1613.47 1180.57 1606.05 1162.11 1583.33 1154.67 1573.93 1149.28 1573.49 1142.57 1573.83 1137.08 1573.93 1136.94 1581.37 1142.34 1628.68 1120.45 1610.36 1117.47 1600.09 1118.75 1519 1118.78 1503.01zM1137.08 1559.99C1149.75 1560.14 1163.89 1561.98 1173.7 1553.71 1200.21 1520.5 1159.07 1518.37 1137.08 1518.99L1137.08 1559.99zM984.561 1503.01C996.87 1503.02 1018.21 1501.55 1029.71 1503.48 1078.85 1511.7 1076.93 1570.66 1026.48 1578.96 1019.31 1579.29 1010.03 1578.99 1002.7 1578.96 1002.43 1583.76 1004.45 1628.66 985.251 1611.12 982.233 1594.28 983.708 1522.84 984.561 1503.01zM1002.7 1563.4C1016.22 1563.73 1027.32 1564.98 1038.83 1556.97 1062.27 1523.46 1027.35 1518.47 1002.7 1518.99L1002.7 1563.4zM1394.4 1503.01C1398.4 1502.85 1403.71 1501.91 1405.8 1506.29 1408.38 1511.7 1408 1604.14 1404.66 1610.25 1394.89 1628.15 1345.37 1549.05 1329.64 1536.23 1329.62 1551.67 1329.58 1567.1 1329.76 1582.54 1329.95 1598.73 1338.13 1611.41 1322.58 1613.47 1305.18 1608.57 1313.97 1536.69 1314.3 1518.34 1315.27 1463.92 1382.48 1574.02 1390 1583.72 1390.28 1568.3 1385.36 1512.31 1394.4 1503.01zM1134.38 267.295C1154.96 263.917 1174.42 277.716 1178.04 298.246 1181.66 318.777 1168.09 338.402 1147.61 342.266 1134.14 344.807 1120.34 339.909 1111.49 329.444 1102.64 318.979 1100.09 304.563 1104.83 291.701 1109.57 278.838 1120.86 269.517 1134.38 267.295zM1148.57 326.311C1160.2 322.005 1166.2 309.148 1162.03 297.471 1157.86 285.795 1145.07 279.643 1133.35 283.673 1125.64 286.322 1119.95 292.912 1118.45 300.925 1116.96 308.938 1119.88 317.137 1126.12 322.391 1132.35 327.645 1140.93 329.142 1148.57 326.311zM914.387 269.126C934.438 264.641 954.397 277.006 959.309 296.957 964.222 316.908 952.287 337.126 932.445 342.465 919.228 346.021 905.12 342.148 895.57 332.342 886.021 322.536 882.523 308.331 886.428 295.212 890.333 282.093 901.029 272.113 914.387 269.126zM928.536 327.71C936.312 325.684 942.392 319.625 944.447 311.856 946.501 304.088 944.209 295.815 938.451 290.211 932.693 284.606 924.362 282.539 916.652 284.802 904.981 288.228 898.219 300.386 901.466 312.108 904.712 323.83 916.766 330.777 928.536 327.71zM659.543 1317.01 830.472 1317.06C858.772 1317.08 887.967 1316.75 916.287 1317.22 926.4 1317.39 939.139 1325.98 925.071 1333L667.347 1333.17C656.704 1333.24 646.077 1323.9 659.543 1317.01zM1221.58 1503.01C1242.01 1502.92 1295.68 1492.87 1292.59 1515.84 1286.82 1520.84 1251.44 1518.19 1241.11 1518.9L1240 1518.99 1240 1550.46C1249.74 1549.43 1282.47 1542.21 1281.37 1558.86 1270.46 1574.57 1240.13 1548.38 1240 1573.93L1240 1598.96C1249.65 1597.46 1291.85 1596.15 1295.56 1601.29 1298.17 1621.96 1231.06 1613.3 1222.98 1609.81 1220.33 1603.56 1221.56 1516.24 1221.58 1503.01zM1528.19 1503.01C1540.68 1501.78 1592.15 1499.58 1596.5 1510.85 1594.38 1524.41 1553.08 1519.05 1541.46 1518.99L1541.46 1550.46C1601.15 1551.16 1598.95 1565.99 1541.46 1565.58L1541.46 1578.96C1541.66 1585.34 1541.48 1592.51 1541.46 1598.96 1552.21 1599.04 1588.27 1596.69 1595.07 1601.69 1606.8 1623.2 1529.15 1613.01 1526.13 1609.72 1523.42 1599.92 1520.72 1509.39 1528.19 1503.01zM663.2 1154.09C689.64 1154.09 919.877 1152.46 925.651 1155.01 934.835 1159.08 928.052 1168.37 919.886 1169.01L673.429 1169.27C651.566 1169.42 644.461 1156.25 663.2 1154.09zM655.981 990.964C662.465 990.139 683.519 990.922 691.358 990.932L870.689 990.917C891.705 990.858 933.081 981.21 928.356 1005.28 920.674 1006.12 893.909 1005.32 884.511 1005.31L700.128 1005.35C679.332 1005.36 649.98 1013.99 655.981 990.964zM765.335 1503.01C776.027 1503.05 862.725 1493.73 843.563 1517.28 835.899 1520.99 822.336 1519.34 813.388 1518.99L813.388 1588.78C813.365 1599.86 815.315 1620.58 797.685 1611.29 794.713 1606.56 796.033 1531.19 796.053 1518.99 793.961 1518.88 739.554 1520.64 765.335 1503.01zM1432.08 1503.01C1443.4 1502.98 1518.69 1494.88 1505.26 1516.66 1502.68 1520.85 1482.41 1519.05 1475.52 1518.99L1475.52 1591.81C1475.77 1599.67 1474.74 1625.5 1459.62 1611.36 1455 1607.05 1456.96 1530.69 1456.99 1518.99 1445.77 1519.06 1421.03 1524.16 1424.33 1506.49 1426.48 1503.79 1428.64 1503.78 1432.08 1503.01zM655.981 1381.18C681.325 1381.17 817.053 1378.62 830.11 1383.28 834.913 1388.76 833.297 1391.8 829.187 1396.97 823.492 1397.73 790.453 1397.01 782.623 1397.01L699.79 1397.02C685.487 1397.02 642.021 1404.49 655.981 1381.18zM799.191 1217.98C807.428 1217.48 840.355 1213.07 830.709 1230.58 825.714 1235.14 786.037 1233.65 777.697 1233.65L686.694 1233.6C679.391 1233.82 643.186 1238.23 655.016 1220.72 667.281 1216.16 779.484 1217.97 799.191 1217.98zM659.543 1052.47 762.604 1052.44C770.933 1052.44 828.516 1048.76 831.431 1056.71 833.849 1063.32 832.223 1065.98 826.31 1067.51L704.91 1067.54C689.362 1067.55 672.661 1068.12 657.157 1066.85 649.738 1066.24 651.216 1054.8 659.543 1052.47zM1160.27 656.465C1204.54 656.411 1250.3 655.036 1294.26 657.961 1299.55 658.313 1302.41 671.119 1288.25 671.302 1247.72 671.27 1194.01 672.439 1152.55 670.277 1149.18 670.1 1142.44 657.513 1160.27 656.465zM802.417 710.123C845.639 709.639 889.411 710.302 932.673 710.031 942.164 709.972 940.858 720.906 933.644 724.771L848.889 724.829C834.198 724.882 818.467 725.225 803.774 724.576 792.701 724.086 793.923 713.645 802.417 710.123zM1160.27 710.123C1201.55 709.739 1243.92 709.847 1285.24 710.68 1300.39 710.985 1303.76 724.235 1288.25 724.771 1243.77 724.765 1198.96 725.371 1154.6 724.285 1149.82 724.168 1143.11 712.231 1160.27 710.123zM1154.67 438.321 1244.42 438.295C1253.89 438.296 1291.83 436.65 1296.89 441.632 1298.19 447.218 1295.61 450.696 1290.66 452.987 1276.31 453.006 1153.36 457.014 1149.79 449.164 1146.88 442.763 1149.12 440.088 1154.67 438.321zM1157.68 385.968 1250.47 386.121C1257.65 386.122 1306.05 380.426 1295.51 398.213 1292.92 400.412 1291.67 400.135 1288.25 400.339 1247.42 400.325 1193.09 401.134 1151.16 399.711 1148.06 399.606 1143.63 388.339 1157.68 385.968zM802.417 656.465C835.075 654.891 898.651 653.882 931.531 657.035 939.966 657.843 939.858 669.459 931.845 671.302L844.985 671.416C830.925 671.47 815.675 672.061 801.648 670.836 794.363 670.2 792.801 658.733 802.417 656.465zM799.191 385.968C806.384 385.142 934.682 385.51 935.003 385.651 941.177 388.363 938.674 396.239 935.755 400.339 921.665 400.024 774.099 412.392 799.191 385.968zM796.053 438.321C804.449 437.298 932.157 438.009 936.824 439.64 941.291 444.737 939.985 448.335 935.755 452.987 895.031 452.555 842.566 454.344 800.717 451.935 795.803 451.652 793.989 443.444 796.053 438.321zM981.233 710.123 1062.54 710.077C1072.76 710.077 1107.24 706.569 1113.42 714.468 1114.94 721.446 1111.53 723.629 1105.15 724.771L1018.09 724.853C1004.96 724.855 991.632 725.252 978.557 724.271 971.669 723.754 968.663 712.348 981.233 710.123zM1303.79 1708.16C1309.44 1708.25 1316.76 1711.5 1312.86 1718.18 1306.22 1729.54 1245.22 1747.19 1230.2 1751.29 1218.97 1752.68 1215.94 1737.88 1225.41 1735.34 1252.29 1728.13 1277.72 1717.09 1303.79 1708.16zM1160.27 1751.29C1168.67 1750.45 1172.56 1754.41 1171.32 1762.68 1165.11 1770.83 1103.8 1778.39 1086.9 1783 1078.42 1781.54 1072.66 1776.09 1076.39 1767.95 1078.44 1763.47 1151.17 1753.6 1160.27 1751.29zM674.315 1684.61C678.6 1685.31 745.29 1716.96 750.746 1720.54 754.532 1726.25 750.938 1729.9 746.685 1733.9 735.302 1731.24 644.765 1704.8 674.315 1684.61zM302.708 1300.91C314.405 1302.6 333.707 1366.25 338.716 1380.42 339.485 1382.6 336.31 1385.8 334.997 1387.41 314.422 1386.78 297.947 1324.81 295.741 1308.93 295.293 1305.7 300.432 1302.51 302.708 1300.91zM560.814 416.714C567.644 416.185 573.56 422.763 571.167 426.501 565.988 434.591 518.508 469.693 506.895 478.031 468.181 476.331 555.397 419.923 560.814 416.714zM692.358 342.874C703.421 342.044 706.538 352.926 695.94 357.583 672.742 367.777 650.7 380.676 628.054 391.705 616.545 393.248 616.628 382.336 618.376 380.999 638.352 365.713 668.472 351.774 692.358 342.874zM802.417 1739C813.124 1738.15 871.495 1753.65 883.726 1757.47 889.452 1759.26 885.173 1767.88 881.899 1771.02 873.922 1771.34 781.186 1762.13 802.417 1739zM939.693 1767.04C947.157 1765.88 1044.34 1759.62 1022.17 1783 1017.18 1783.1 908.466 1787.55 939.693 1767.04zM265.529 1164.62C278.032 1166.24 287.964 1233.81 287.726 1243.57 286.508 1246.31 284.073 1247.01 281.256 1248.45L277.628 1248.29C272.503 1245.48 247.364 1176.06 265.529 1164.62zM1488.11 441.618C1489.25 441.68 1567.73 486.924 1541.46 505.122 1534.76 503.53 1482.76 454.093 1482.33 448.203 1483.45 444.953 1485.43 443.837 1488.11 441.618zM259.711 888.894C262.451 888.886 271.665 888.854 271.087 893.393 269.339 907.116 266.334 962.299 259.711 971.208 233.454 972.926 254.735 893.948 259.711 888.894zM244.968 1025.04 247.553 1024.92C253.133 1024.68 255.276 1024 259.402 1027.8 261.374 1036.48 264.864 1104.83 261.924 1109.5 236.22 1110.23 243.685 1028.13 244.968 1025.04zM1676.39 663.912C1682.47 665.204 1730.21 730.98 1710.76 743.415 1698.98 741.375 1670.46 677.735 1670.42 672.098 1670.4 668.228 1673.71 666.075 1676.39 663.912zM302.708 749.965C306.485 751.114 307.857 751.307 310.388 754.354 311.153 756.872 293.283 826.404 281.256 832.172 258.863 824.627 297.458 752.129 302.708 749.965zM451.372 512.766C476.852 521.305 412.503 578.689 407.629 581.709 379.033 576.248 446.017 515.776 451.372 512.766zM1590.76 544.787C1606.36 543.298 1641.88 594.799 1645.79 605.752 1645.85 609.28 1644.18 610.867 1642.12 613.819 1629.5 616.965 1598.86 567.782 1588.75 554.771 1586.92 552.416 1589.64 546.993 1590.76 544.787zM363.414 624.607C388.54 629.135 341 693.454 334.997 699.705 308.493 692.079 355.62 632.118 363.414 624.607zM1731.89 798.704C1747.53 798.714 1761.18 857.228 1762.51 869.199 1761.67 872.571 1760.3 873.265 1757.65 875.555 1752.71 876.613 1753.39 877.252 1749.31 875.864 1747.56 874.015 1720.82 809.358 1731.89 798.704zM1378.79 368.487C1385.16 368.779 1447.12 396.529 1432.08 412.419 1425.98 412.217 1363.79 387.367 1378.79 368.487zM1764.99 936.091C1780.07 937.761 1779.57 987.801 1779.18 1000.18 1779.1 1002.58 1775.16 1004.23 1773.38 1005.28 1759.36 1003.87 1757.94 950.968 1758.77 940.546 1760.92 937.259 1760.82 938.092 1764.99 936.091z"></path>
</svg>
